<svg data-v-29081953="" xmlns="http://www.w3.org/2000/svg" viewBox="0 0 300 300"><!----><defs data-v-29081953=""><!----></defs><rect data-v-29081953="" fill="transparent" x="0" y="0" width="300px" height="300px" class="logo-background-square"></rect><defs data-v-29081953=""><!----></defs><g data-v-29081953="" id="c5ecaa59-055c-4bb7-b387-ffede0c98449" fill="#000000" transform="matrix(7.753702640533447,0,0,7.753702640533447,16.7180920194394,152.6909436844936)"><path d="M5.29 2.21L3.98 2.21L0.04 11.48L1.20 11.48L2.34 8.79L6.93 8.79L8.06 11.48L9.23 11.48ZM2.74 7.83L4.63 3.30L6.52 7.83ZM11.45 8.18L14.57 8.18C16.55 8.18 17.77 7.03 17.77 5.19C17.77 3.37 16.55 2.21 14.57 2.21L10.40 2.21L10.40 11.48L11.45 11.48ZM14.50 3.21C15.96 3.21 16.72 3.96 16.72 5.19C16.72 6.44 15.96 7.20 14.50 7.20L11.45 7.20L11.45 3.21ZM25.89 3.22L25.89 2.21L19.19 2.21L19.19 11.48L20.24 11.48L20.24 7.46L25.27 7.46L25.27 6.44L20.24 6.44L20.24 3.22ZM27.97 4.65C27.97 4.03 28.34 3.08 30.44 3.08C32.13 3.08 32.91 3.82 33.03 4.75L34.10 4.75C34.02 3.36 32.90 2.10 30.44 2.10C28.11 2.10 26.95 3.15 26.95 4.66C26.95 7.84 33.29 6.69 33.29 8.96C33.29 10.05 32.31 10.60 30.74 10.60C29.13 10.60 27.83 10.05 27.76 8.71L26.67 8.71C26.81 10.37 27.93 11.59 30.67 11.59C32.96 11.59 34.34 10.64 34.34 8.92C34.34 5.68 27.97 6.80 27.97 4.65Z"></path></g><defs data-v-29081953=""><linearGradient data-v-29081953="" gradientTransform="rotate(25)" id="8787cd64-5a06-4555-9b0f-f8d206f6c61b" x1="0%" y1="0%" x2="100%" y2="0%"><stop data-v-29081953="" offset="0%" stop-color="#920DE9" stop-opacity="1"></stop><stop data-v-29081953="" offset="100%" stop-color="#1536F1" stop-opacity="1"></stop></linearGradient></defs><g data-v-29081953="" id="e38404d7-3073-45c0-ae15-db4d62bffba6" stroke="none" fill="url(#8787cd64-5a06-4555-9b0f-f8d206f6c61b)" transform="matrix(1.3371787071228027,0,0,1.3371787071228027,83.14106362815349,40.00000000000003)"><path d="M99.981 2.312A2.492 2.492 0 0 0 97.5 0h-95A2.492 2.492 0 0 0 .019 2.312L0 66.5A2.5 2.5 0 0 0 2.5 69h95a2.5 2.5 0 0 0 2.5-2.5l-.019-64.188zM96 57H4V4h92v53zM66 81c-4-1-5-4-5-8v-1H39v1c0 4-1 7-5 8-.97.242-1 2 0 2h32c1 0 .97-1.758 0-2z"></path></g><defs data-v-29081953=""><!----></defs><g data-v-29081953="" id="655c2953-7611-44cb-9fef-53361605412a" fill="#000000" transform="matrix(0.7450675368309021,0,0,0.7450675368309021,49.87864241467603,250.39561408006833)"><path d="M0.52 3.49C0.52 3.72 0.63 3.74 0.80 3.74L1.41 3.74C1.47 3.74 1.54 4.79 1.54 5.71C1.54 5.80 1.60 8.27 1.60 9.83L1.60 11.17C1.60 11.84 1.58 12.18 1.53 12.18L0.94 12.18C0.71 12.18 0.64 12.19 0.64 12.39C0.64 12.63 0.66 12.68 0.85 12.68C1.06 12.68 1.90 12.64 2.32 12.64C2.74 12.64 3.68 12.68 4.00 12.68C4.17 12.68 4.20 12.61 4.20 12.40C4.20 12.24 4.17 12.18 4.00 12.18L2.87 12.18C2.81 12.18 2.83 10.16 2.79 8.33C2.79 8.08 2.77 8.09 2.97 8.09L5.39 8.09C6.09 8.09 6.12 8.19 6.12 8.30L6.12 9.16C6.12 9.28 6.30 9.28 6.41 9.28C6.51 9.28 6.64 9.28 6.64 9.17C6.64 8.99 6.61 8.33 6.61 7.83C6.61 7.32 6.64 6.82 6.64 6.69C6.64 6.58 6.52 6.58 6.40 6.58C6.23 6.58 6.12 6.58 6.12 6.71L6.12 7.45C6.12 7.62 5.67 7.63 5.39 7.63L2.97 7.63C2.76 7.63 2.79 7.66 2.79 7.45C2.77 7.13 2.76 6.15 2.76 5.26C2.76 4.52 2.77 3.71 2.84 3.71C4.24 3.71 6.43 3.75 6.72 3.79C6.72 3.96 6.68 4.82 6.68 4.89C6.68 5.04 6.75 5.10 6.93 5.10C7.13 5.10 7.20 5.08 7.20 4.94C7.20 3.85 7.25 3.36 7.25 3.09C7.25 2.93 7.17 2.90 6.97 2.90C6.85 2.90 6.78 2.90 6.75 3.11C6.73 3.25 6.80 3.25 5.85 3.25C5.25 3.25 2.97 3.29 2.23 3.29C1.74 3.29 0.80 3.25 0.70 3.25C0.57 3.25 0.52 3.30 0.52 3.49ZM15.08 12.39C15.08 12.63 15.12 12.68 15.32 12.68C15.64 12.68 16.39 12.64 17.11 12.64C17.77 12.64 18.56 12.68 18.79 12.68C18.96 12.68 18.98 12.61 18.98 12.40C18.98 12.24 18.96 12.18 18.79 12.18L17.82 12.18C17.72 12.18 17.70 9.55 17.70 7.76L17.70 5.87C17.70 5.14 17.72 3.70 17.82 3.70L18.73 3.70C18.96 3.70 18.98 3.68 18.98 3.49C18.98 3.25 18.96 3.19 18.79 3.19C18.47 3.19 17.79 3.23 17.14 3.23C16.32 3.23 15.61 3.19 15.39 3.19C15.20 3.19 15.13 3.21 15.13 3.44C15.13 3.68 15.22 3.70 15.39 3.70L16.31 3.70C16.35 3.70 16.42 4.79 16.42 5.71L16.42 7.08C16.42 8.92 16.41 12.18 16.30 12.18L15.37 12.18C15.15 12.18 15.08 12.19 15.08 12.39ZM26.88 12.39C26.88 12.63 26.91 12.68 27.10 12.68C27.43 12.68 28.39 12.64 28.81 12.64C29.23 12.64 33.59 12.68 33.91 12.68C34.17 12.68 34.24 12.66 34.26 12.49C34.31 12.08 34.55 10.72 34.55 10.60C34.55 10.47 34.40 10.44 34.23 10.43C34.13 10.42 34.05 10.46 34.03 10.56L33.87 11.76C33.82 12.05 33.81 12.03 33.59 12.04C33.43 12.05 30.93 12.12 29.50 12.12C29.46 12.12 29.41 11.38 29.41 10.54L29.41 6.66C29.41 5.40 29.43 3.70 29.53 3.70L30.51 3.70C30.74 3.70 30.77 3.63 30.77 3.44C30.77 3.23 30.76 3.19 30.52 3.19C30.20 3.19 29.26 3.23 28.84 3.23C28.42 3.23 27.48 3.19 27.26 3.19C27.03 3.19 26.98 3.22 26.98 3.44C26.98 3.65 27.02 3.70 27.22 3.70L28.04 3.70C28.08 3.70 28.11 4.23 28.11 4.90L28.11 8.13C28.11 10.07 28.08 12.18 28 12.18L27.16 12.18C26.94 12.18 26.88 12.21 26.88 12.39ZM42.17 12.39C42.17 12.63 42.20 12.68 42.39 12.68C42.71 12.68 43.68 12.64 44.10 12.64C44.52 12.64 49.03 12.68 49.35 12.68C49.48 12.68 49.63 12.66 49.63 12.49C49.63 12.07 49.67 11.23 49.67 10.53C49.67 10.39 49.52 10.39 49.39 10.39C49.28 10.39 49.15 10.39 49.15 10.51C49.14 11.06 49.14 11.41 49.11 11.76C49.08 12.01 49.08 12.04 48.99 12.04C48.83 12.04 46.20 12.08 44.70 12.08C44.63 12.08 44.59 10.11 44.55 8.26C44.55 8.06 44.59 8.09 44.73 8.09L47.01 8.09C47.71 8.09 47.74 8.20 47.74 8.30L47.74 9.00C47.74 9.14 47.92 9.14 48.03 9.14C48.13 9.14 48.26 9.13 48.26 9.02C48.26 8.83 48.23 8.33 48.23 7.83C48.23 7.32 48.26 6.83 48.26 6.71C48.26 6.59 48.12 6.58 48.02 6.58C47.91 6.58 47.74 6.59 47.74 6.72L47.74 7.45C47.74 7.62 47.29 7.63 47.01 7.63L44.67 7.63C44.56 7.63 44.55 7.63 44.55 7.45C44.53 6.75 44.52 6.06 44.52 5.46C44.52 5.12 44.52 3.71 44.60 3.71C45.84 3.71 48.34 3.75 48.34 3.81C48.34 3.99 48.30 4.83 48.30 4.89C48.30 5.04 48.37 5.10 48.55 5.10C48.75 5.10 48.82 5.08 48.82 4.94C48.82 3.85 48.87 3.36 48.87 3.09C48.87 2.91 48.79 2.90 48.59 2.90C48.40 2.90 48.40 2.95 48.37 3.11C48.36 3.25 48.43 3.25 47.52 3.25C46.90 3.25 44.76 3.29 43.99 3.29C43.50 3.29 42.56 3.25 42.46 3.25C42.34 3.25 42.28 3.30 42.28 3.49C42.28 3.72 42.35 3.74 42.52 3.74L43.18 3.74C43.23 3.74 43.30 4.79 43.30 5.71C43.30 5.80 43.36 8.27 43.36 9.83L43.36 11.17C43.36 11.84 43.33 12.18 43.30 12.18L42.45 12.18C42.22 12.18 42.17 12.21 42.17 12.39ZM57.64 12.39C57.64 12.63 57.64 12.68 57.83 12.68C58.16 12.68 59.09 12.64 59.51 12.64C59.93 12.64 60.76 12.68 61.08 12.68C61.25 12.68 61.25 12.61 61.25 12.40C61.25 12.24 61.25 12.18 61.08 12.18L60.16 12.18C60.07 12.18 60.03 9.93 60.03 8.20C60.03 8.01 60.03 8.01 60.16 8.01L65.39 8.01C65.46 8.01 65.48 8.01 65.48 8.18L65.48 9.91C65.48 11.05 65.46 12.18 65.41 12.18L64.64 12.18C64.41 12.18 64.37 12.19 64.37 12.39C64.37 12.63 64.39 12.68 64.58 12.68C64.90 12.68 65.74 12.64 66.16 12.64C66.58 12.64 67.17 12.68 67.49 12.68C67.66 12.68 67.68 12.61 67.68 12.40C67.68 12.24 67.66 12.18 67.49 12.18L66.75 12.18C66.71 12.18 66.70 9.27 66.70 7.04C66.70 5.40 66.70 3.70 66.74 3.70L67.35 3.70C67.58 3.70 67.62 3.68 67.62 3.49C67.62 3.25 67.61 3.19 67.41 3.19C67.27 3.19 66.64 3.23 66.05 3.23C65.38 3.23 64.78 3.19 64.55 3.19C64.36 3.19 64.33 3.22 64.33 3.44C64.33 3.67 64.40 3.70 64.57 3.70L65.37 3.70C65.42 3.70 65.48 4.79 65.48 5.71L65.48 7.42C65.48 7.59 65.48 7.59 65.31 7.59L60.20 7.59C60.03 7.59 60.03 7.59 60.03 7.38C60.03 6.96 60.02 6.23 60.02 5.53C60.02 4.66 60.03 3.70 60.09 3.70L60.86 3.70C61.08 3.70 61.12 3.68 61.12 3.49C61.12 3.25 61.11 3.19 60.91 3.19C60.59 3.19 60.00 3.23 59.40 3.23C58.81 3.23 58.32 3.19 58.10 3.19C57.92 3.19 57.82 3.21 57.82 3.44C57.82 3.68 57.93 3.70 58.10 3.70L58.72 3.70C58.77 3.70 58.79 5.59 58.79 7.18L58.79 8.61C58.79 10.08 58.77 12.18 58.70 12.18L57.89 12.18C57.67 12.18 57.64 12.19 57.64 12.39ZM75.78 8.15C75.78 11.17 78.12 12.80 80.37 12.80C83.16 12.80 85.13 10.89 85.13 8.06C85.13 5.33 83.38 3.11 80.58 3.11C77.98 3.11 75.78 5.10 75.78 8.15ZM77.18 7.77C77.18 5.64 78.47 3.58 80.44 3.58C82.68 3.58 83.76 5.81 83.76 7.94C83.76 10.08 82.66 12.32 80.39 12.32C78.40 12.32 77.18 10.28 77.18 7.77ZM93.45 5.77C93.45 9.07 98.43 8.20 98.43 10.65C98.43 11.59 97.59 12.31 96.61 12.31C95.79 12.31 94.19 11.83 94.16 11.47L94.08 10.15C94.07 9.97 94.00 9.91 93.81 9.91L93.74 9.91C93.53 9.91 93.53 10.00 93.53 10.12C93.53 10.32 93.65 11.66 93.67 12.17C93.69 12.38 94.95 12.85 96.49 12.85C98.06 12.85 99.67 11.87 99.67 10.11C99.67 6.79 94.70 7.87 94.70 5.32C94.70 4.31 95.48 3.56 96.52 3.56C97.54 3.56 98.63 4.58 98.63 4.89C98.63 5.01 98.59 5.73 98.59 5.78C98.59 5.92 98.63 5.99 98.90 5.99C99.13 5.99 99.15 5.94 99.15 5.75C99.15 5.04 99.23 3.68 99.23 3.53C99.23 3.30 99.19 3.29 98.92 3.29C98.70 3.29 98.69 3.32 98.67 3.53C98.67 3.61 98.66 3.78 98.62 3.78C98.56 3.78 98.48 3.74 98.41 3.68C97.61 3.14 96.99 3.08 96.49 3.08C94.96 3.08 93.45 4.17 93.45 5.77ZM107.23 5.01C107.23 5.17 107.41 5.17 107.53 5.17C107.69 5.17 107.73 5.15 107.74 4.97L107.86 3.89C107.87 3.81 108.42 3.75 109.17 3.75L111.16 3.75C111.22 3.75 111.24 4.35 111.24 4.97C111.24 6.43 111.19 12.18 111.06 12.18L110.19 12.18C109.97 12.18 109.93 12.19 109.93 12.39C109.93 12.63 109.94 12.68 110.14 12.68C110.46 12.68 111.44 12.64 111.86 12.64C112.28 12.64 113.22 12.68 113.54 12.68C113.71 12.68 113.74 12.61 113.74 12.40C113.74 12.24 113.71 12.18 113.54 12.18L112.55 12.18C112.52 12.18 112.52 11.76 112.52 11.31C112.52 9.56 112.60 5.96 112.60 5.92C112.62 5.18 112.62 3.75 112.71 3.75L114.32 3.75C115.04 3.75 115.86 3.78 115.86 3.85C115.86 3.99 115.82 4.90 115.82 4.97C115.82 5.12 115.89 5.17 116.07 5.17C116.27 5.17 116.34 5.17 116.34 5.03C116.34 3.93 116.40 3.40 116.40 3.14C116.40 2.94 116.31 2.94 116.12 2.94C115.96 2.94 115.91 2.98 115.89 3.16C115.89 3.23 115.25 3.28 114.41 3.28L109.41 3.28C108.75 3.28 107.94 3.28 107.94 3.21L107.94 3.07C107.94 2.94 107.81 2.94 107.72 2.94C107.49 2.94 107.46 3.00 107.45 3.19C107.39 3.89 107.23 4.97 107.23 5.01ZM124.01 12.39C124.01 12.63 124.05 12.68 124.25 12.68C124.57 12.68 125.33 12.64 126.04 12.64C126.70 12.64 127.50 12.68 127.72 12.68C127.89 12.68 127.92 12.61 127.92 12.40C127.92 12.24 127.89 12.18 127.72 12.18L126.76 12.18C126.66 12.18 126.63 9.55 126.63 7.76L126.63 5.87C126.63 5.14 126.66 3.70 126.76 3.70L127.67 3.70C127.89 3.70 127.92 3.68 127.92 3.49C127.92 3.25 127.89 3.19 127.72 3.19C127.40 3.19 126.73 3.23 126.07 3.23C125.26 3.23 124.54 3.19 124.32 3.19C124.14 3.19 124.07 3.21 124.07 3.44C124.07 3.68 124.15 3.70 124.32 3.70L125.24 3.70C125.29 3.70 125.36 4.79 125.36 5.71L125.36 7.08C125.36 8.92 125.34 12.18 125.23 12.18L124.31 12.18C124.08 12.18 124.01 12.19 124.01 12.39ZM135.81 12.39C135.81 12.63 135.83 12.68 136.02 12.68C136.21 12.68 136.58 12.64 137.20 12.64C137.83 12.64 138.39 12.68 138.71 12.68C138.88 12.68 138.88 12.61 138.88 12.40C138.88 12.24 138.88 12.18 138.71 12.18L137.51 12.18C137.47 12.18 137.45 11.54 137.45 10.79C137.45 9.46 137.47 7.48 137.47 5.99C137.47 5.25 137.47 4.84 137.48 4.28C137.48 4.02 137.55 4.14 137.68 4.28L144.56 12.66C144.65 12.75 144.73 12.89 144.84 12.89C144.96 12.89 145.03 12.77 145.03 12.54C145.03 12.39 145.19 6.65 145.21 4.48C145.21 4.06 145.24 3.70 145.26 3.70L145.89 3.70C146.12 3.70 146.17 3.68 146.17 3.49C146.17 3.25 146.17 3.19 145.98 3.19C145.78 3.19 145.35 3.23 144.79 3.23C144.17 3.23 143.37 3.19 143.28 3.19C143.11 3.19 143.11 3.26 143.11 3.47C143.11 3.64 143.11 3.70 143.28 3.70L144.58 3.70C144.59 3.70 144.59 4.33 144.59 4.44C144.59 5.85 144.62 8.33 144.62 9.70L144.62 10.29C144.62 10.57 144.61 10.65 144.38 10.37L138.70 3.39C138.59 3.25 138.56 3.19 138.39 3.19C138.31 3.19 137.93 3.23 137.62 3.23C137.33 3.23 136.25 3.19 136.05 3.19C135.88 3.19 135.86 3.26 135.86 3.47C135.86 3.64 135.88 3.70 136.05 3.70L136.96 3.70C136.96 4.17 136.92 8.53 136.85 10.79C136.82 11.69 136.84 12.18 136.72 12.18L136.08 12.18C135.86 12.18 135.81 12.19 135.81 12.39ZM154.28 7.91C154.28 11.40 156.65 12.89 159.24 12.89C161.13 12.89 163.13 11.89 163.13 11.58C163.13 11.12 163.14 10.68 163.14 10.33C163.14 9.81 163.16 9.56 163.28 9.56L163.72 9.56C163.86 9.56 163.87 9.39 163.87 9.30C163.87 9.18 163.86 9.06 163.72 9.06C163.49 9.06 163.13 9.10 162.46 9.10C162.01 9.10 161.27 9.07 160.58 9.06C160.44 9.06 160.44 9.24 160.44 9.35C160.44 9.45 160.47 9.56 160.59 9.56L161.81 9.56C161.85 9.56 161.91 9.87 161.91 10.33C161.91 10.82 161.90 11.41 161.87 11.65C161.85 11.76 161.21 12.39 159.63 12.39C157.39 12.39 155.79 10.29 155.79 7.94C155.79 5.42 157.35 3.54 159.35 3.54C161.24 3.54 162.41 4.87 162.41 5.03C162.41 5.15 162.36 6.12 162.36 6.17C162.36 6.31 162.40 6.36 162.67 6.36C162.86 6.36 162.93 6.33 162.93 6.15C162.93 5.43 162.97 3.75 162.97 3.56C162.97 3.36 162.88 3.33 162.67 3.33C162.44 3.33 162.41 3.39 162.41 3.56L162.41 3.91C162.41 3.99 162.37 4.02 162.25 3.92C161.97 3.72 160.97 3.08 159.40 3.08C156.56 3.08 154.28 4.79 154.28 7.91ZM181.71 10.43C181.71 11.79 182.70 12.78 184.25 12.78C185.46 12.78 186.48 11.72 186.91 11.24C187.03 11.12 187.04 11.12 187.14 11.26C187.31 11.49 187.63 12.00 187.80 12.61C187.84 12.74 187.88 12.78 188.05 12.78C188.26 12.78 188.76 12.66 189.70 12.64C189.91 12.64 189.92 12.63 189.92 12.39C189.92 12.19 189.92 12.18 189.80 12.18C189.01 12.18 188.97 12.08 188.80 11.80C188.57 11.37 188.20 10.79 187.89 10.42C187.81 10.30 187.77 10.25 187.77 10.22C187.81 10.08 188.83 8.64 189.11 8.23C189.22 8.06 189.29 7.99 189.36 7.99L189.84 7.99C190.04 7.99 190.08 7.98 190.08 7.78C190.08 7.55 190.05 7.49 189.90 7.49C189.76 7.49 189.24 7.53 188.86 7.53C188.15 7.53 187.53 7.49 187.31 7.49C187.18 7.49 187.12 7.53 187.12 7.74C187.12 7.97 187.12 7.99 187.31 7.99L188.19 7.99C188.43 7.99 188.41 8.01 188.41 8.02C188.41 8.30 187.85 9.18 187.56 9.72C187.46 9.90 187.47 9.91 187.31 9.73C186.58 8.95 185.98 8.29 185.12 7.57C184.94 7.42 184.93 7.42 185.14 7.28C185.67 6.92 186.90 5.99 186.90 5.01C186.90 4.03 185.96 3.57 184.95 3.57C183.71 3.57 182.63 4.52 182.63 5.80C182.63 6.45 183.12 7.10 183.43 7.45C183.54 7.57 183.62 7.63 183.62 7.66C183.62 7.69 183.57 7.73 183.46 7.81C182.94 8.18 181.71 9.16 181.71 10.43ZM182.66 9.84C182.66 9.00 183.25 8.48 183.67 8.18C183.85 8.05 183.95 7.98 183.99 7.98C184.04 7.98 184.10 8.04 184.23 8.13C185.02 8.79 186.14 9.90 186.66 10.63C186.72 10.72 186.76 10.77 186.76 10.79C186.76 10.82 186.73 10.85 186.69 10.91C186.41 11.19 185.71 11.83 184.70 11.83C183.67 11.83 182.66 10.93 182.66 9.84ZM183.62 5.35C183.62 4.69 183.99 4.07 184.79 4.07C185.43 4.07 185.86 4.63 185.86 5.24C185.86 6.03 185.28 6.61 184.88 6.90C184.74 7.00 184.67 7.06 184.60 7.06C184.55 7.06 184.46 6.97 184.32 6.82C184.03 6.47 183.62 5.87 183.62 5.35ZM207.63 12.39C207.63 12.63 207.66 12.68 207.86 12.68C208.10 12.68 208.60 12.64 209.02 12.64C209.44 12.64 209.93 12.68 210.25 12.68C210.42 12.68 210.45 12.61 210.45 12.40C210.45 12.24 210.42 12.18 210.25 12.18L209.29 12.18C209.23 12.18 209.22 11.54 209.22 10.79C209.22 8.96 209.26 6.13 209.33 4.28C209.36 3.88 209.38 3.91 209.52 4.27L212.79 12.32C212.88 12.54 212.95 12.74 213.07 12.74C213.16 12.74 213.23 12.63 213.32 12.45C213.65 11.79 213.84 11.75 214.10 11.09L216.69 4.47C216.82 4.16 216.86 4.02 216.87 4.47C216.90 5.66 216.94 8.47 216.94 9.74C216.94 10.99 216.90 12.18 216.85 12.18L216.22 12.18C215.99 12.18 215.92 12.19 215.92 12.39C215.92 12.63 215.95 12.68 216.15 12.68C216.34 12.68 217.04 12.64 217.64 12.64C218.06 12.64 218.82 12.68 219.14 12.68C219.31 12.68 219.34 12.61 219.34 12.40C219.34 12.22 219.28 12.18 219.11 12.18L218.39 12.18C218.27 12.18 218.18 8.44 218.18 6.03L218.18 4.77C218.18 4.17 218.20 3.77 218.25 3.70L218.90 3.70C219.13 3.70 219.17 3.68 219.17 3.49C219.17 3.25 219.16 3.19 218.96 3.19C218.64 3.19 217.95 3.23 217.53 3.23L216.86 3.23C216.64 3.23 216.61 3.29 216.50 3.58L213.75 10.72C213.67 10.95 213.64 11.02 213.53 10.74L210.59 3.40C210.52 3.22 210.46 3.19 210.32 3.19C210.24 3.19 209.75 3.23 209.44 3.23C208.94 3.23 208.08 3.19 207.89 3.19C207.75 3.19 207.75 3.26 207.75 3.47C207.75 3.64 207.75 3.70 207.89 3.70L208.59 3.70C208.85 3.70 208.85 3.72 208.85 3.84C208.85 4.82 208.64 9.94 208.60 10.79C208.56 11.55 208.56 12.18 208.50 12.18L207.93 12.18C207.70 12.18 207.63 12.19 207.63 12.39ZM227.30 8.15C227.30 11.17 229.64 12.80 231.90 12.80C234.68 12.80 236.66 10.89 236.66 8.06C236.66 5.33 234.91 3.11 232.11 3.11C229.50 3.11 227.30 5.10 227.30 8.15ZM228.70 7.77C228.70 5.64 229.99 3.58 231.97 3.58C234.21 3.58 235.28 5.81 235.28 7.94C235.28 10.08 234.18 12.32 231.91 12.32C229.92 12.32 228.70 10.28 228.70 7.77ZM244.76 3.51C244.76 3.72 244.83 3.79 245.03 3.79L245.84 3.77C245.94 3.77 245.98 6.61 245.98 8.55L245.98 10.42C245.98 11.30 245.97 12.18 245.92 12.18L245.32 12.18C245.10 12.18 245.03 12.19 245.03 12.39C245.03 12.63 245.07 12.68 245.27 12.68C245.39 12.68 246.22 12.64 246.64 12.64C247.06 12.64 247.83 12.68 248.15 12.68C248.32 12.68 248.35 12.61 248.35 12.40C248.35 12.24 248.32 12.18 248.15 12.18L247.34 12.18C247.27 12.18 247.18 9.18 247.18 8.37C247.18 8.30 247.18 8.26 247.30 8.26C247.69 8.26 248.29 8.27 248.58 8.27C250.82 8.32 250.96 10.00 250.96 11.68L250.96 12.49C250.96 12.61 251.02 12.64 251.12 12.64C251.12 12.64 252.56 12.68 253.04 12.68C253.20 12.68 253.26 12.64 253.26 12.53C253.26 12.24 253.20 12.18 253.05 12.18L252.41 12.18C252.31 12.18 252.28 12.14 252.25 11.31C252.17 8.99 250.80 8.34 249.89 8.05C249.75 8.01 249.77 8.01 249.89 7.95C250.47 7.69 251.79 6.94 251.79 5.63C251.79 3.63 250.10 3.21 248.70 3.21C248.37 3.21 247.09 3.29 246.67 3.29C246.25 3.29 245.27 3.26 245.04 3.26C244.86 3.26 244.76 3.28 244.76 3.51ZM247.18 7.80L247.18 4.40C247.18 4.05 247.21 3.68 247.25 3.68C247.46 3.65 247.74 3.65 247.97 3.65C249.27 3.65 250.52 4.47 250.52 5.82C250.52 6.99 249.97 7.57 249.31 7.88C249.27 7.90 249.23 7.90 249.16 7.90C248.68 7.88 247.97 7.88 247.37 7.87C247.20 7.87 247.18 7.85 247.18 7.80ZM260.74 12.39C260.74 12.63 260.76 12.68 260.96 12.68C261.28 12.68 262.25 12.64 262.67 12.64C263.09 12.64 267.60 12.68 267.92 12.68C268.04 12.68 268.20 12.66 268.20 12.49C268.20 12.07 268.24 11.23 268.24 10.53C268.24 10.39 268.09 10.39 267.96 10.39C267.85 10.39 267.72 10.39 267.72 10.51C267.71 11.06 267.71 11.41 267.68 11.76C267.65 12.01 267.65 12.04 267.55 12.04C267.40 12.04 264.77 12.08 263.27 12.08C263.20 12.08 263.16 10.11 263.12 8.26C263.12 8.06 263.16 8.09 263.30 8.09L265.58 8.09C266.28 8.09 266.31 8.20 266.31 8.30L266.31 9.00C266.31 9.14 266.49 9.14 266.60 9.14C266.70 9.14 266.83 9.13 266.83 9.02C266.83 8.83 266.80 8.33 266.80 7.83C266.80 7.32 266.83 6.83 266.83 6.71C266.83 6.59 266.69 6.58 266.59 6.58C266.48 6.58 266.31 6.59 266.31 6.72L266.31 7.45C266.31 7.62 265.86 7.63 265.58 7.63L263.24 7.63C263.13 7.63 263.12 7.63 263.12 7.45C263.10 6.75 263.09 6.06 263.09 5.46C263.09 5.12 263.09 3.71 263.17 3.71C264.40 3.71 266.91 3.75 266.91 3.81C266.91 3.99 266.87 4.83 266.87 4.89C266.87 5.04 266.94 5.10 267.12 5.10C267.32 5.10 267.39 5.08 267.39 4.94C267.39 3.85 267.44 3.36 267.44 3.09C267.44 2.91 267.36 2.90 267.16 2.90C266.97 2.90 266.97 2.95 266.94 3.11C266.92 3.25 266.99 3.25 266.08 3.25C265.47 3.25 263.33 3.29 262.56 3.29C262.07 3.29 261.13 3.25 261.03 3.25C260.90 3.25 260.85 3.30 260.85 3.49C260.85 3.72 260.92 3.74 261.09 3.74L261.74 3.74C261.80 3.74 261.87 4.79 261.87 5.71C261.87 5.80 261.93 8.27 261.93 9.83L261.93 11.17C261.93 11.84 261.90 12.18 261.87 12.18L261.02 12.18C260.79 12.18 260.74 12.21 260.74 12.39Z"></path></g></svg>